<svg width="176" height="34" viewBox="0 0 176 34" fill="none" xmlns="http://www.w3.org/2000/svg">
<path d="M7.34961 27.7891C7.34961 28.9844 7.68945 29.8516 8.36914 30.3906C9.06055 30.9297 10.0684 31.2109 11.3926 31.2344V33.6953C9.16602 33.6719 7.44336 33.1621 6.22461 32.166C5.00586 31.1699 4.39648 29.7695 4.39648 27.9648V22.6387C4.39648 21.4199 4.02734 20.5527 3.28906 20.0371C2.55078 19.5098 1.47852 19.2461 0.0722656 19.2461V16.7676C1.5957 16.7441 2.69727 16.4629 3.37695 15.9238C4.05664 15.3848 4.39648 14.5527 4.39648 13.4277V8.04883C4.39648 6.23242 5.0293 4.82031 6.29492 3.8125C7.56055 2.80469 9.25977 2.30078 11.3926 2.30078V4.74414C8.69727 4.81445 7.34961 5.98047 7.34961 8.24219V13.4277C7.34961 15.9473 6.04297 17.4355 3.42969 17.8926V18.1035C6.04297 18.5605 7.34961 20.0488 7.34961 22.5684V27.7891ZM24.418 11.002H19.5137V28H16.5957V11.002H13.1504V9.68359L16.5957 8.62891V7.55664C16.5957 2.82227 18.6641 0.455078 22.8008 0.455078C23.8203 0.455078 25.0156 0.660156 26.3867 1.07031L25.6309 3.4082C24.5059 3.04492 23.5449 2.86328 22.748 2.86328C21.6465 2.86328 20.832 3.23242 20.3047 3.9707C19.7773 4.69727 19.5137 5.86914 19.5137 7.48633V8.73438H24.418V11.002ZM30.8516 28H27.9336V8.73438H30.8516V28ZM27.6875 3.51367C27.6875 2.8457 27.8516 2.35937 28.1797 2.05469C28.5078 1.73828 28.918 1.58008 29.4102 1.58008C29.8789 1.58008 30.2832 1.73828 30.623 2.05469C30.9629 2.37109 31.1328 2.85742 31.1328 3.51367C31.1328 4.16992 30.9629 4.66211 30.623 4.99023C30.2832 5.30664 29.8789 5.46484 29.4102 5.46484C28.918 5.46484 28.5078 5.30664 28.1797 4.99023C27.8516 4.66211 27.6875 4.16992 27.6875 3.51367ZM39.957 28H37.0391V0.648438H39.957V28ZM70.7012 28V15.4668C70.7012 13.9316 70.373 12.7832 69.7168 12.0215C69.0605 11.248 68.041 10.8613 66.6582 10.8613C64.8418 10.8613 63.5 11.3828 62.6328 12.4258C61.7656 13.4688 61.332 15.0742 61.332 17.2422V28H58.4141V15.4668C58.4141 13.9316 58.0859 12.7832 57.4297 12.0215C56.7734 11.248 55.748 10.8613 54.3535 10.8613C52.5254 10.8613 51.1836 11.4121 50.3281 12.5137C49.4844 13.6035 49.0625 15.3965 49.0625 17.8926V28H46.1445V8.73438H48.5176L48.9922 11.3711H49.1328C49.6836 10.4336 50.457 9.70117 51.4531 9.17383C52.4609 8.64648 53.5859 8.38281 54.8281 8.38281C57.8398 8.38281 59.8086 9.47266 60.7344 11.6523H60.875C61.4492 10.6445 62.2812 9.84766 63.3711 9.26172C64.4609 8.67578 65.7031 8.38281 67.0977 8.38281C69.2773 8.38281 70.9062 8.94531 71.9844 10.0703C73.0742 11.1836 73.6191 12.9707 73.6191 15.4316V28H70.7012Z" fill="#38B84D"/>
<path d="M80.0879 2.30078H87.3477C90.7578 2.30078 93.2246 2.81055 94.748 3.83008C96.2715 4.84961 97.0332 6.46094 97.0332 8.66406C97.0332 10.1875 96.6055 11.4473 95.75 12.4434C94.9062 13.4277 93.6699 14.0664 92.041 14.3594V14.5352C95.9434 15.2031 97.8945 17.2539 97.8945 20.6875C97.8945 22.9844 97.1152 24.7773 95.5566 26.0664C94.0098 27.3555 91.8418 28 89.0527 28H80.0879V2.30078ZM83.0762 13.3047H87.998C90.1074 13.3047 91.625 12.9766 92.5508 12.3203C93.4766 11.6523 93.9395 10.5332 93.9395 8.96289C93.9395 7.52148 93.4238 6.48438 92.3926 5.85156C91.3613 5.20703 89.7207 4.88477 87.4707 4.88477H83.0762V13.3047ZM83.0762 15.8359V25.4512H88.4375C90.5117 25.4512 92.0703 25.0527 93.1133 24.2559C94.168 23.4473 94.6953 22.1875 94.6953 20.4766C94.6953 18.8828 94.1562 17.7109 93.0781 16.9609C92.0117 16.2109 90.3828 15.8359 88.1914 15.8359H83.0762ZM119.586 28L116.387 19.8262H106.086L102.922 28H99.8984L110.059 2.19531H112.572L122.68 28H119.586ZM115.455 17.1367L112.467 9.17383C112.08 8.16602 111.682 6.92969 111.271 5.46484C111.014 6.58984 110.645 7.82617 110.164 9.17383L107.141 17.1367H115.455ZM140.715 21.1621C140.715 23.4238 139.895 25.1875 138.254 26.4531C136.613 27.7188 134.387 28.3516 131.574 28.3516C128.527 28.3516 126.184 27.959 124.543 27.1738V24.291C125.598 24.7363 126.746 25.0879 127.988 25.3457C129.23 25.6035 130.461 25.7324 131.68 25.7324C133.672 25.7324 135.172 25.3574 136.18 24.6074C137.188 23.8457 137.691 22.791 137.691 21.4434C137.691 20.5527 137.51 19.8262 137.146 19.2637C136.795 18.6895 136.197 18.1621 135.354 17.6816C134.521 17.2012 133.25 16.6562 131.539 16.0469C129.148 15.1914 127.438 14.1777 126.406 13.0059C125.387 11.834 124.877 10.3047 124.877 8.41797C124.877 6.4375 125.621 4.86133 127.109 3.68945C128.598 2.51758 130.566 1.93164 133.016 1.93164C135.57 1.93164 137.92 2.40039 140.064 3.33789L139.133 5.93945C137.012 5.04883 134.949 4.60352 132.945 4.60352C131.363 4.60352 130.127 4.94336 129.236 5.62305C128.346 6.30273 127.9 7.24609 127.9 8.45312C127.9 9.34375 128.064 10.0762 128.393 10.6504C128.721 11.2129 129.271 11.7344 130.045 12.2148C130.83 12.6836 132.025 13.2051 133.631 13.7793C136.326 14.7402 138.178 15.7715 139.186 16.873C140.205 17.9746 140.715 19.4043 140.715 21.1621ZM160.297 28H145.971V2.30078H160.297V4.95508H148.959V13.2344H159.611V15.8711H148.959V25.3281H160.297V28ZM171.652 17.8926C169.039 17.4355 167.732 15.9473 167.732 13.4277V8.24219C167.732 5.98047 166.402 4.81445 163.742 4.74414V2.30078C165.898 2.30078 167.592 2.81055 168.822 3.83008C170.064 4.84961 170.686 6.25586 170.686 8.04883V13.4277C170.686 14.5645 171.031 15.4023 171.723 15.9414C172.414 16.4688 173.521 16.7441 175.045 16.7676V19.2461C173.615 19.2461 172.531 19.5098 171.793 20.0371C171.055 20.5527 170.686 21.4199 170.686 22.6387V27.9648C170.686 29.7578 170.082 31.1523 168.875 32.1484C167.68 33.1562 165.969 33.6719 163.742 33.6953V31.2344C165.043 31.2109 166.033 30.9297 166.713 30.3906C167.393 29.8516 167.732 28.9844 167.732 27.7891V22.5684C167.732 21.2324 168.055 20.2129 168.699 19.5098C169.344 18.8066 170.328 18.3379 171.652 18.1035V17.8926Z" fill="#464646"/>
</svg>
