<svg width="194" height="34" viewBox="0 0 194 34" fill="none" xmlns="http://www.w3.org/2000/svg">
<path d="M7.34961 27.7891C7.34961 28.9844 7.68945 29.8516 8.36914 30.3906C9.06055 30.9297 10.0684 31.2109 11.3926 31.2344V33.6953C9.16602 33.6719 7.44336 33.1621 6.22461 32.166C5.00586 31.1699 4.39648 29.7695 4.39648 27.9648V22.6387C4.39648 21.4199 4.02734 20.5527 3.28906 20.0371C2.55078 19.5098 1.47852 19.2461 0.0722656 19.2461V16.7676C1.5957 16.7441 2.69727 16.4629 3.37695 15.9238C4.05664 15.3848 4.39648 14.5527 4.39648 13.4277V8.04883C4.39648 6.23242 5.0293 4.82031 6.29492 3.8125C7.56055 2.80469 9.25977 2.30078 11.3926 2.30078V4.74414C8.69727 4.81445 7.34961 5.98047 7.34961 8.24219V13.4277C7.34961 15.9473 6.04297 17.4355 3.42969 17.8926V18.1035C6.04297 18.5605 7.34961 20.0488 7.34961 22.5684V27.7891ZM33.7695 11.002H28.8652V28H25.9473V11.002H22.502V9.68359L25.9473 8.62891V7.55664C25.9473 2.82227 28.0156 0.455078 32.1523 0.455078C33.1719 0.455078 34.3672 0.660156 35.7383 1.07031L34.9824 3.4082C33.8574 3.04492 32.8965 2.86328 32.0996 2.86328C30.998 2.86328 30.1836 3.23242 29.6562 3.9707C29.1289 4.69727 28.8652 5.86914 28.8652 7.48633V8.73438H33.7695V11.002ZM40.2031 28H37.2852V8.73438H40.2031V28ZM37.0391 3.51367C37.0391 2.8457 37.2031 2.35937 37.5312 2.05469C37.8594 1.73828 38.2695 1.58008 38.7617 1.58008C39.2305 1.58008 39.6348 1.73828 39.9746 2.05469C40.3145 2.37109 40.4844 2.85742 40.4844 3.51367C40.4844 4.16992 40.3145 4.66211 39.9746 4.99023C39.6348 5.30664 39.2305 5.46484 38.7617 5.46484C38.2695 5.46484 37.8594 5.30664 37.5312 4.99023C37.2031 4.66211 37.0391 4.16992 37.0391 3.51367ZM49.3086 28H46.3906V0.648438H49.3086V28ZM80.0527 28V15.4668C80.0527 13.9316 79.7246 12.7832 79.0684 12.0215C78.4121 11.248 77.3926 10.8613 76.0098 10.8613C74.1934 10.8613 72.8516 11.3828 71.9844 12.4258C71.1172 13.4688 70.6836 15.0742 70.6836 17.2422V28H67.7656V15.4668C67.7656 13.9316 67.4375 12.7832 66.7812 12.0215C66.125 11.248 65.0996 10.8613 63.7051 10.8613C61.877 10.8613 60.5352 11.4121 59.6797 12.5137C58.8359 13.6035 58.4141 15.3965 58.4141 17.8926V28H55.4961V8.73438H57.8691L58.3438 11.3711H58.4844C59.0352 10.4336 59.8086 9.70117 60.8047 9.17383C61.8125 8.64648 62.9375 8.38281 64.1797 8.38281C67.1914 8.38281 69.1602 9.47266 70.0859 11.6523H70.2266C70.8008 10.6445 71.6328 9.84766 72.7227 9.26172C73.8125 8.67578 75.0547 8.38281 76.4492 8.38281C78.6289 8.38281 80.2578 8.94531 81.3359 10.0703C82.4258 11.1836 82.9707 12.9707 82.9707 15.4316V28H80.0527Z" fill="#38B84D"/>
<path d="M89.4395 2.30078H96.6992C100.109 2.30078 102.576 2.81055 104.1 3.83008C105.623 4.84961 106.385 6.46094 106.385 8.66406C106.385 10.1875 105.957 11.4473 105.102 12.4434C104.258 13.4277 103.021 14.0664 101.393 14.3594V14.5352C105.295 15.2031 107.246 17.2539 107.246 20.6875C107.246 22.9844 106.467 24.7773 104.908 26.0664C103.361 27.3555 101.193 28 98.4043 28H89.4395V2.30078ZM92.4277 13.3047H97.3496C99.459 13.3047 100.977 12.9766 101.902 12.3203C102.828 11.6523 103.291 10.5332 103.291 8.96289C103.291 7.52148 102.775 6.48438 101.744 5.85156C100.713 5.20703 99.0723 4.88477 96.8223 4.88477H92.4277V13.3047ZM92.4277 15.8359V25.4512H97.7891C99.8633 25.4512 101.422 25.0527 102.465 24.2559C103.52 23.4473 104.047 22.1875 104.047 20.4766C104.047 18.8828 103.508 17.7109 102.43 16.9609C101.363 16.2109 99.7344 15.8359 97.543 15.8359H92.4277ZM128.938 28L125.738 19.8262H115.438L112.273 28H109.25L119.41 2.19531H121.924L132.031 28H128.938ZM124.807 17.1367L121.818 9.17383C121.432 8.16602 121.033 6.92969 120.623 5.46484C120.365 6.58984 119.996 7.82617 119.516 9.17383L116.492 17.1367H124.807ZM150.066 21.1621C150.066 23.4238 149.246 25.1875 147.605 26.4531C145.965 27.7188 143.738 28.3516 140.926 28.3516C137.879 28.3516 135.535 27.959 133.895 27.1738V24.291C134.949 24.7363 136.098 25.0879 137.34 25.3457C138.582 25.6035 139.812 25.7324 141.031 25.7324C143.023 25.7324 144.523 25.3574 145.531 24.6074C146.539 23.8457 147.043 22.791 147.043 21.4434C147.043 20.5527 146.861 19.8262 146.498 19.2637C146.146 18.6895 145.549 18.1621 144.705 17.6816C143.873 17.2012 142.602 16.6562 140.891 16.0469C138.5 15.1914 136.789 14.1777 135.758 13.0059C134.738 11.834 134.229 10.3047 134.229 8.41797C134.229 6.4375 134.973 4.86133 136.461 3.68945C137.949 2.51758 139.918 1.93164 142.367 1.93164C144.922 1.93164 147.271 2.40039 149.416 3.33789L148.484 5.93945C146.363 5.04883 144.301 4.60352 142.297 4.60352C140.715 4.60352 139.479 4.94336 138.588 5.62305C137.697 6.30273 137.252 7.24609 137.252 8.45312C137.252 9.34375 137.416 10.0762 137.744 10.6504C138.072 11.2129 138.623 11.7344 139.396 12.2148C140.182 12.6836 141.377 13.2051 142.982 13.7793C145.678 14.7402 147.529 15.7715 148.537 16.873C149.557 17.9746 150.066 19.4043 150.066 21.1621ZM169.648 28H155.322V2.30078H169.648V4.95508H158.311V13.2344H168.963V15.8711H158.311V25.3281H169.648V28ZM190.355 17.8926C187.742 17.4355 186.436 15.9473 186.436 13.4277V8.24219C186.436 5.98047 185.105 4.81445 182.445 4.74414V2.30078C184.602 2.30078 186.295 2.81055 187.525 3.83008C188.768 4.84961 189.389 6.25586 189.389 8.04883V13.4277C189.389 14.5645 189.734 15.4023 190.426 15.9414C191.117 16.4688 192.225 16.7441 193.748 16.7676V19.2461C192.318 19.2461 191.234 19.5098 190.496 20.0371C189.758 20.5527 189.389 21.4199 189.389 22.6387V27.9648C189.389 29.7578 188.785 31.1523 187.578 32.1484C186.383 33.1562 184.672 33.6719 182.445 33.6953V31.2344C183.746 31.2109 184.736 30.9297 185.416 30.3906C186.096 29.8516 186.436 28.9844 186.436 27.7891V22.5684C186.436 21.2324 186.758 20.2129 187.402 19.5098C188.047 18.8066 189.031 18.3379 190.355 18.1035V17.8926Z" fill="#464646"/>
</svg>
